<?xml version="1.0" encoding="UTF-8" standalone="no"?>
<svg width="500" height="300" xmlns="http://www.w3.org/2000/svg">
  <defs>
    <linearGradient id="skyGradient" x1="0%" y1="0%" x2="0%" y2="100%">
      <stop offset="0%" stop-color="#3b82f6" />
      <stop offset="100%" stop-color="#8b5cf6" />
    </linearGradient>
  </defs>
  
  <!-- Background -->
  <rect width="500" height="300" fill="url(#skyGradient)" />
  
  <!-- India Gate -->
  <path d="M200,240 L200,130 L220,110 L280,110 L300,130 L300,240 Z" fill="#dc2626" />
  <path d="M210,240 L210,135 L225,120 L275,120 L290,135 L290,240 Z" fill="#7f1d1d" />
  <rect x="240" y="120" width="20" height="40" fill="#7f1d1d" />
  
  <!-- Lotus Temple -->
  <ellipse cx="400" cy="200" rx="50" ry="20" fill="#e2e8f0" />
  <path d="M350,200 Q400,120 450,200" fill="#f8fafc" stroke="#e2e8f0" stroke-width="2" />
  <path d="M360,200 Q400,140 440,200" fill="#f1f5f9" stroke="#e2e8f0" stroke-width="1" />
  <path d="M370,200 Q400,150 430,200" fill="#f1f5f9" stroke="#e2e8f0" stroke-width="1" />
  <path d="M380,200 Q400,160 420,200" fill="#f1f5f9" stroke="#e2e8f0" stroke-width="1" />
  <path d="M390,200 Q400,170 410,200" fill="#f1f5f9" stroke="#e2e8f0" stroke-width="1" />
  
  <!-- Red Fort outline -->
  <path d="M50,180 L150,180 L150,220 L50,220 Z" fill="#b91c1c" />
  <path d="M50,180 L50,220 L60,210 L70,220 L80,210 L90,220 L100,210 L110,220 L120,210 L130,220 L140,210 L150,220 L150,180" fill="none" stroke="#7f1d1d" stroke-width="2" />
  
  <!-- Ground -->
  <rect x="0" y="240" width="500" height="60" fill="#0f172a" />
  
  <!-- Road -->
  <rect x="0" y="250" width="500" height="20" fill="#334155" />
  <line x1="20" y1="260" x2="60" y2="260" stroke="white" stroke-width="2" stroke-dasharray="10,10" />
  <line x1="100" y1="260" x2="140" y2="260" stroke="white" stroke-width="2" stroke-dasharray="10,10" />
  <line x1="180" y1="260" x2="220" y2="260" stroke="white" stroke-width="2" stroke-dasharray="10,10" />
  <line x1="260" y1="260" x2="300" y2="260" stroke="white" stroke-width="2" stroke-dasharray="10,10" />
  <line x1="340" y1="260" x2="380" y2="260" stroke="white" stroke-width="2" stroke-dasharray="10,10" />
  <line x1="420" y1="260" x2="460" y2="260" stroke="white" stroke-width="2" stroke-dasharray="10,10" />
  
  <!-- Text -->
  <text x="250" y="285" font-family="Arial, sans-serif" font-size="24" font-weight="bold" text-anchor="middle" fill="white">DELHI</text>
</svg>